<svg width="512" height="512" viewBox="0 0 512 512" fill="none" xmlns="http://www.w3.org/2000/svg">
  <style>
      @media (prefers-color-scheme: dark) {
        path { fill: #FAFAFA; }
      }
  </style>
  <path d="M0.21814 402.114L11.8697 321.752C48.3939 348.539 83.4088 361.902 113.111 361.902C139.855 361.902 151.084 347.492 151.084 332.097C151.084 318.18 143.296 305.802 112.628 295.888L92.2229 288.929C32.3957 269.101 8.54928 228.889 8.54928 181.718C8.54928 121.185 54.7931 75 124.823 75C155.491 75 188.091 82.9438 222.623 99.3242L211.394 178.331C176.862 159.981 147.16 150.066 123.314 150.066C100.916 150.066 90.2307 162.444 90.2307 177.346C90.2307 191.756 98.9844 203.148 128.687 212.57L148.609 219.529C211.877 240.343 235.18 282.525 235.18 326.74C235.18 382.347 197.207 437.399 114.5 437.399C69.3424 437.338 30.8864 421.45 0.21814 402.114Z" fill="#333741"/>
  <path d="M425.429 207.583C425.429 177.778 402.065 156.964 369.948 156.964H350.509V259.187H369.948C402.065 259.187 425.429 237.88 425.429 207.583ZM512 207.583C512 280.555 456.036 333.637 378.702 333.637H350.509V429.887H264.36V82.5136H378.702C456.036 82.5136 512 135.103 512 207.583Z" fill="#333741"/>
</svg>